HIERARCHY
ROOT locator2
{
  OFFSET 53.6172 30.1899 0.816905
  CHANNELS 6 Xposition Yposition Zposition Zrotation Xrotation Yrotation
  JOINT koshi
  {
    OFFSET 0 0 0
    CHANNELS 6 Xposition Yposition Zposition Zrotation Xrotation Yrotation
    JOINT sippo01
    {
      OFFSET 0 42.8363 -0.548134
      CHANNELS 6 Xposition Yposition Zposition Zrotation Xrotation Yrotation
      JOINT sippo02
      {
        OFFSET 0 44.0461 -3.28882
        CHANNELS 6 Xposition Yposition Zposition Zrotation Xrotation Yrotation
        JOINT sippo03
        {
          OFFSET 0 34.1929 -2.46662
          CHANNELS 6 Xposition Yposition Zposition Zrotation Xrotation Yrotation
          JOINT sippo04
          {
            OFFSET 0 30.0959 -1.75404
            CHANNELS 6 Xposition Yposition Zposition Zrotation Xrotation Yrotation
            JOINT sippo05
            {
              OFFSET 0 28.3637 -1.75404
              CHANNELS 6 Xposition Yposition Zposition Zrotation Xrotation Yrotation
              JOINT sippo06
              {
                OFFSET 0 31.6071 -3.2043
                CHANNELS 6 Xposition Yposition Zposition Zrotation Xrotation Yrotation
                End Site
                {
                  OFFSET 0 0 0
                }
              }
            }
          }
        }
      }
    }
    JOINT R_momo
    {
      OFFSET -27.891 13.5892 3.92723
      CHANNELS 6 Xposition Yposition Zposition Zrotation Xrotation Yrotation
      JOINT R_hiza
      {
        OFFSET 0 28.01 1.8232
        CHANNELS 6 Xposition Yposition Zposition Zrotation Xrotation Yrotation
        JOINT R_ashi
        {
          OFFSET 0 24.3992 -2.49174
          CHANNELS 6 Xposition Yposition Zposition Zrotation Xrotation Yrotation
          End Site
          {
            OFFSET 0 0 0
          }
        }
      }
    }
    JOINT L_momo
    {
      OFFSET 27.891 13.5892 3.92714
      CHANNELS 6 Xposition Yposition Zposition Zrotation Xrotation Yrotation
      JOINT L_hiza
      {
        OFFSET 0 28.0098 1.82319
        CHANNELS 6 Xposition Yposition Zposition Zrotation Xrotation Yrotation
        JOINT L_ashi
        {
          OFFSET 0 24.3992 -2.49171
          CHANNELS 6 Xposition Yposition Zposition Zrotation Xrotation Yrotation
          End Site
          {
            OFFSET 0 0 0
          }
        }
      }
    }
  }
  JOINT hara
  {
    OFFSET 0 2.15392 0
    CHANNELS 6 Xposition Yposition Zposition Zrotation Xrotation Yrotation
    JOINT mune
    {
      OFFSET 0 62.0609 0.472494
      CHANNELS 6 Xposition Yposition Zposition Zrotation Xrotation Yrotation
      JOINT R_kata
      {
        OFFSET 22.6695 9.65301 -5.3622
        CHANNELS 6 Xposition Yposition Zposition Zrotation Xrotation Yrotation
        JOINT R_hiji
        {
          OFFSET 0 25.813 1.69098
          CHANNELS 6 Xposition Yposition Zposition Zrotation Xrotation Yrotation
          JOINT R_te
          {
            OFFSET 0 28.5636 -0.966307
            CHANNELS 6 Xposition Yposition Zposition Zrotation Xrotation Yrotation
            End Site
            {
              OFFSET 0 0 0
            }
          }
        }
      }
      JOINT L_kata
      {
        OFFSET -22.6695 9.65298 -5.3622
        CHANNELS 6 Xposition Yposition Zposition Zrotation Xrotation Yrotation
        JOINT L_hiji
        {
          OFFSET 0 25.813 1.69102
          CHANNELS 6 Xposition Yposition Zposition Zrotation Xrotation Yrotation
          JOINT L_te
          {
            OFFSET 0 28.5636 -0.966295
            CHANNELS 6 Xposition Yposition Zposition Zrotation Xrotation Yrotation
            End Site
            {
              OFFSET 0 0 0
            }
          }
        }
      }
      JOINT kubi
      {
        OFFSET 0 23.1438 -0.944988
        CHANNELS 6 Xposition Yposition Zposition Zrotation Xrotation Yrotation
        JOINT atama
        {
          OFFSET 0 20.8625 4.12737
          CHANNELS 6 Xposition Yposition Zposition Zrotation Xrotation Yrotation
          JOINT ago
          {
            OFFSET 0 7.552 -7.58201
            CHANNELS 6 Xposition Yposition Zposition Zrotation Xrotation Yrotation
            End Site
            {
              OFFSET 0 0 0
            }
          }
        }
      }
    }
  }
}
MOTION
Frames:	5
Frame Time:	0.0333333
-6.83003e-005 26.5758 4.33168e-005 -90 -3.50835e-015 -90 0 0 0 -174.664 3.09205 0.502863 -1.49012e-007 42.8363 -0.548136 2.96549 -15.9213 3.73703 4.17233e-007 44.0461 -3.28882 5.39889 9.40653 -5.26524 5.72205e-006 34.1929 -2.46662 6.42178 1.07549 -1.69324 1.14441e-005 30.0959 -1.75404 6.02399 9.41341 -0.737009 -3.8147e-006 28.3637 -1.75404 9.46273 -5.79991 5.77107 1.52588e-005 31.6071 -3.2043 5.23275 -6.13625 -5.40592 -27.891 13.5892 3.92723 117.517 -18.6586 -48.438 -3.8147e-006 28.01 1.8232 12.0074 -82.2942 -3.95951 1.14441e-005 24.3992 -2.49173 -149.823 63.0186 -167.606 27.891 13.5892 3.92714 -102.222 -21.3576 59.5765 0 28.0098 1.82319 -3.56809 -68.5058 9.58251 -3.8147e-006 24.3992 -2.49173 140.894 67.253 166.768 6.07684e-007 2.15392 3.55271e-015 5.4806e-008 -0.413068 -5.4806e-008 1.75087e-005 62.0609 0.472498 6.95874e-040 -2.62894e-017 1.51661e-021 22.6695 9.65299 -5.36221 -148.408 2.76378 46.4977 -7.6294e-006 25.813 1.69098 179.965 -77.8745 179.748 0 28.5636 -0.966309 40.9929 13.2189 -94.3946 -22.6695 9.65299 -5.3622 130.761 -5.3556 -52.4216 7.10543e-015 25.813 1.69102 -179.768 -75.304 -178.037 -3.8147e-006 28.5636 -0.966296 -44.3037 34.5389 110.057 6.57608e-006 23.1438 -0.944994 5.12911e-007 -3.98427 -5.1291e-007 5.84793e-006 20.8625 4.12737 5.1291e-007 -3.98427 -5.1291e-007 2.17208e-006 7.55201 -7.58201 -5.89309e-007 4.2591 5.89309e-007 
-0.775566 25.7439 -0.135442 -90 -3.50835e-015 -90 0 0 0 -174.892 2.85379 0.526227 -1.49012e-007 42.8363 -0.548136 2.69391 -14.5405 3.768 3.25966e-007 44.0461 -3.28882 4.9701 8.95885 -4.81119 5.36311e-006 34.1929 -2.46662 7.39302 1.51406 -1.0063 1.14575e-005 30.0959 -1.75404 7.67373 9.6284 -1.16787 -3.45061e-006 28.3637 -1.75404 9.9147 -5.40644 5.77046 1.58002e-005 31.6071 -3.2043 5.45925 -5.69372 -5.83023 -27.891 13.5892 3.92723 118.372 -16.9021 -48.3016 -4.01293e-006 28.01 1.8232 14.2112 -83.3054 -2.16821 1.13747e-005 24.3992 -2.49173 -149.533 63.4725 -167.886 27.891 13.5892 3.92714 -103.749 -19.9011 58.9708 2.38126e-007 28.0098 1.82319 -4.17459 -70.9401 9.88779 -3.72306e-006 24.3992 -2.49173 141.472 66.5527 166.519 6.07684e-007 2.15392 -3.55271e-015 0.210467 -0.345391 -0.264852 9.09814e-013 62.0609 0.472498 -1.2424e-016 -2.70398e-015 1.49089e-016 22.6695 9.653 -5.36221 -147.106 4.04927 46.3416 -7.6294e-006 25.813 1.69098 179.966 -77.9468 179.987 -1.88633e-009 28.5636 -0.966309 40.9347 14.5154 -93.5176 -22.6695 9.65299 -5.3622 128.905 -4.36882 -53.1777 0 25.813 1.69102 -179.787 -73.8079 -178.203 -3.81465e-006 28.5636 -0.966296 -45.0489 36.8617 111.04 1.03462e-011 23.1438 -0.944994 0.893623 -3.52602 0.839745 -2.42462e-012 20.8625 4.12737 0.840761 -3.54555 0.868655 5.21162e-008 7.55201 -7.58201 -9.44181e-007 5.38418 1.00623e-005 
-1.53601 24.9282 -0.268297 -90 -3.50835e-015 -90 0 0 0 -175.116 2.61832 0.547584 -1.49012e-007 42.8363 -0.548136 2.43198 -13.1842 3.81133 2.36138e-007 44.0461 -3.28882 4.55199 8.51993 -4.37349 5.0124e-006 34.1929 -2.46662 8.34664 1.94213 -0.3468 1.14806e-005 30.0959 -1.75404 9.29448 9.83004 -1.60318 -3.11912e-006 28.3637 -1.75404 10.3579 -5.02123 5.76392 1.62653e-005 31.6071 -3.2043 5.68221 -5.25836 -6.2512 -27.891 13.5892 3.92723 119.099 -15.1448 -48.2183 -4.20252e-006 28.01 1.8232 17.1256 -84.2842 0.342333 1.13241e-005 24.3992 -2.49173 -149.237 63.9182 -168.172 27.891 13.5892 3.92714 -105.073 -18.3792 58.4561 4.586e-007 28.0098 1.82319 -4.93987 -73.3244 10.0146 -3.63702e-006 24.3992 -2.49173 142.003 65.8645 166.309 6.07684e-007 2.15392 0 0.422418 -0.278533 -0.528872 2.77556e-017 62.0609 0.472498 -1.2732e-032 7.3395e-015 9.93923e-017 22.6695 9.653 -5.36221 -145.806 5.27187 46.1315 -7.6294e-006 25.813 1.69098 179.951 -78.018 -179.797 -4.47872e-009 28.5636 -0.966309 40.9013 15.7934 -92.6535 -22.6695 9.65299 -5.3622 127.124 -2.6995 -52.8631 2.13163e-014 25.813 1.69102 -179.802 -72.3397 -178.362 -3.81417e-006 28.5636 -0.966296 -45.9162 39.1313 112.086 1.04592e-011 23.1438 -0.944994 1.76951 -3.07627 1.65386 -2.72871e-012 20.8625 4.12737 1.66704 -3.11431 1.7133 1.03381e-007 7.55201 -7.58201 -2.11226e-013 6.48742 1.05315e-012 
-1.53959 24.1727 -0.402467 -90 -3.50835e-015 -90 0 0 0 -175.341 2.382 0.566869 -1.49012e-007 42.8363 -0.548136 2.17201 -11.8149 3.86787 1.45758e-007 44.0461 -3.28882 4.13009 8.07472 -3.93722 4.65935e-006 34.1929 -2.46662 9.30928 2.37106 0.303779 1.15124e-005 30.0959 -1.75404 8.98996 10.0809 -1.71527 -3.2219e-006 28.3637 -1.75404 10.8064 -4.63202 5.75127 1.64721e-005 31.6071 -3.2043 5.90701 -4.8197 -6.67911 -27.891 13.5892 3.92723 119.72 -13.343 -48.1779 -4.38873e-006 28.01 1.8232 21.2782 -85.2511 3.84482 1.12566e-005 24.3992 -2.49173 -148.926 64.3677 -168.471 27.891 13.5892 3.92714 -106.233 -16.7645 58.01 6.68058e-007 28.0098 1.82319 -5.97532 -75.7283 10.1251 -3.5348e-006 24.3992 -2.49173 142.504 65.1678 166.129 6.07684e-007 2.15392 -3.55271e-015 0.636639 -0.211957 -0.795857 5.55112e-017 62.0609 0.472498 -8.39461e-033 2.41958e-015 1.98785e-016 22.6695 9.653 -5.36221 -144.471 6.46475 45.8612 -7.6294e-006 25.813 1.69098 179.944 -78.0893 -179.57 -6.67433e-009 28.5636 -0.966309 40.8928 17.0895 -91.7816 -22.6695 9.65299 -5.3622 126.793 -1.18344 -53.5546 2.84217e-014 25.813 1.69102 -179.815 -70.8576 -178.52 -3.81326e-006 28.5636 -0.966296 -45.8935 40.2502 111.634 1.04592e-011 23.1438 -0.944994 2.65401 -2.62157 2.46236 -2.72893e-012 20.8625 4.12737 2.50006 -2.67915 2.55248 1.54908e-007 7.55201 -7.58201 -4.75128e-010 6.83459 3.96984e-009 
-1.5432 23.9726 -0.653309 -90 -3.50835e-015 -90 0 0 0 -175.568 2.14327 0.584738 -1.49012e-007 42.8363 -0.548136 1.91354 -10.4316 3.93781 5.52759e-008 44.0461 -3.28882 3.70556 7.62464 -3.50382 4.30548e-006 34.1929 -2.46662 10.2723 3.37993 0.842931 1.15606e-005 30.0959 -1.75404 8.67929 10.3404 -1.82726 -3.33169e-006 28.3637 -1.75404 11.2521 -4.23991 5.73183 1.66716e-005 31.6071 -3.2043 6.12944 -3.74522 -7.1833 -27.891 13.5892 3.92723 120.233 -11.5153 -48.1744 -4.56959e-006 28.01 1.8232 27.4734 -86.1762 9.3834 1.12054e-005 24.3992 -2.49173 -148.598 64.8221 -168.787 27.891 13.5892 3.92714 -106.221 -16.1543 58.078 6.8286e-007 28.0098 1.82319 -7.43962 -78.1329 9.81181 -3.49742e-006 24.3992 -2.49173 143.381 64.2041 165.528 6.07684e-007 2.15392 -3.55271e-015 0.851549 -0.148299 -1.06382 0 62.0609 0.472498 -5.96354e-016 -1.0444e-013 2.99535e-010 22.6695 9.653 -5.36221 -144.208 7.7313 45.6779 -7.6294e-006 25.813 1.69098 179.936 -78.1612 -179.343 -8.93269e-009 28.5636 -0.966309 40.4452 16.695 -89.3765 -22.6695 9.65299 -5.3622 126.405 0.313446 -54.2453 7.10543e-015 25.813 1.69102 -179.827 -69.3567 -178.679 -3.81191e-006 28.5636 -0.966296 -45.8912 41.3873 111.181 1.04594e-011 23.1438 -0.944994 3.5455 -1.15283 3.20214 -2.72937e-012 20.8625 4.12737 3.34045 -1.18293 3.32664 2.06749e-007 7.55201 -7.58201 -1.00419e-005 3.94352 6.93407e-007 
